<svg width="{{ .width }}" height="{{ .height }}" fill="{{ .fill }}" viewBox="0 0 500 500">
  <g fill="none" fill-rule="evenodd">
    <rect width="500" height="500" fill="{{ .fill }}" rx="50"/>
    <path fill="#FFF" d="M154.703 100.183c-19.121 0-34.689 15.565-34.703 34.701 0 19.136 15.568 34.704 34.703 34.704 19.128 0 34.688-15.568 34.688-34.704 0-19.134-15.561-34.701-34.688-34.701zm26.045 83.348h-52.094a4.488 4.488 0 0 0-4.488 4.489v167.675a4.488 4.488 0 0 0 4.488 4.488h52.093a4.49 4.49 0 0 0 4.489-4.488V188.02a4.486 4.486 0 0 0-4.488-4.489zm133.176-1.974c-19.064 0-35.817 5.805-46.04 15.271v-8.808c0-2.48-2.01-4.489-4.489-4.489h-49.971a4.489 4.489 0 0 0-4.489 4.489v167.675a4.488 4.488 0 0 0 4.489 4.488h52.044a4.49 4.49 0 0 0 4.489-4.488v-82.957c0-23.802 4.378-38.555 26.227-38.555 21.526.026 23.137 15.846 23.137 39.977v81.535a4.489 4.489 0 0 0 4.49 4.488h52.068a4.489 4.489 0 0 0 4.488-4.488v-91.977c-.001-38.253-7.553-82.161-66.443-82.161z"/>
  </g>
</svg>
