<svg fill="{{ .fill }}" width="{{ .width }}" height="{{ .height }}" version="1.1" id="Capa_1" xmlns="http://www.w3.org/2000/svg" xmlns:xlink="http://www.w3.org/1999/xlink" x="0px" y="0px"
	 width="438.536px" height="438.536px" viewBox="0 0 438.536 438.536" style="enable-background:new 0 0 438.536 438.536;"
	 xml:space="preserve">
<g>
	<path d="M414.41,24.123C398.333,8.042,378.963,0,356.315,0H82.228C59.58,0,40.21,8.042,24.126,24.123
		C8.045,40.207,0.003,59.576,0.003,82.225v274.084c0,22.647,8.042,42.018,24.123,58.102c16.084,16.084,35.454,24.126,58.102,24.126
		h274.084c22.648,0,42.018-8.042,58.095-24.126c16.084-16.084,24.126-35.454,24.126-58.102V82.225
		C438.532,59.576,430.49,40.204,414.41,24.123z M335.471,168.735c0.191,1.713,0.288,4.278,0.288,7.71
		c0,15.989-2.334,32.025-6.995,48.104c-4.661,16.087-11.8,31.504-21.416,46.254c-9.606,14.749-21.074,27.791-34.396,39.115
		c-13.325,11.32-29.311,20.365-47.968,27.117c-18.648,6.762-38.637,10.143-59.953,10.143c-33.116,0-63.76-8.952-91.931-26.836
		c4.568,0.568,9.329,0.855,14.275,0.855c27.6,0,52.439-8.565,74.519-25.7c-12.941-0.185-24.506-4.179-34.688-11.991
		c-10.185-7.803-17.273-17.699-21.271-29.691c4.947,0.76,8.658,1.137,11.132,1.137c4.187,0,9.042-0.76,14.56-2.279
		c-13.894-2.669-25.598-9.562-35.115-20.697c-9.519-11.136-14.277-23.84-14.277-38.114v-0.571
		c10.085,4.755,19.602,7.229,28.549,7.422c-17.321-11.613-25.981-28.265-25.981-49.963c0-10.66,2.758-20.747,8.278-30.264
		c15.035,18.464,33.311,33.213,54.816,44.252c21.507,11.038,44.54,17.227,69.092,18.558c-0.95-3.616-1.427-8.186-1.427-13.704
		c0-16.562,5.853-30.692,17.56-42.399c11.703-11.706,25.837-17.561,42.394-17.561c17.515,0,32.079,6.283,43.688,18.846
		c13.134-2.474,25.892-7.33,38.26-14.56c-4.757,14.652-13.613,25.788-26.55,33.402c12.368-1.716,23.88-4.95,34.537-9.708
		C357.458,149.793,347.462,160.166,335.471,168.735z"/>
</g>
</svg>
